<svg width="36" height="38" viewBox="0 0 36 38" fill="none" xmlns="http://www.w3.org/2000/svg">
<rect y="1" width="36" height="36" rx="8" fill="white"/>
<path d="M14.9012 9.2L14.5812 11.072H18.1812L17.7492 13.456H14.1492L13.7812 15.504H17.8612L17.4292 18H10.1972L12.1972 6.72H19.4132L18.9812 9.2H14.9012Z" fill="black"/>
<path d="M27.3735 21H24.6155L21.9555 15.484L20.9755 21H18.2175L19.9675 11.13H22.7115L25.3855 16.716L26.3655 11.13H29.1095L27.3735 21Z" fill="black"/>
<path d="M7.81131 24.044C7.97931 23.0733 8.33398 22.21 8.87531 21.454C9.41665 20.6887 10.098 20.096 10.9193 19.676C11.7406 19.2467 12.6366 19.032 13.6073 19.032C14.4193 19.032 15.1286 19.1813 15.7353 19.48C16.342 19.7787 16.8133 20.2033 17.1493 20.754C17.4853 21.3047 17.6673 21.9533 17.6953 22.7H14.7413C14.6293 22.336 14.4333 22.056 14.1533 21.86C13.8733 21.664 13.528 21.566 13.1173 21.566C12.4826 21.566 11.9366 21.79 11.4793 22.238C11.022 22.686 10.728 23.288 10.5973 24.044C10.56 24.24 10.5413 24.45 10.5413 24.674C10.5413 25.2527 10.6906 25.71 10.9893 26.046C11.2973 26.3727 11.7173 26.536 12.2493 26.536C12.66 26.536 13.038 26.438 13.3833 26.242C13.738 26.046 14.032 25.766 14.2653 25.402H17.2333C16.7853 26.5313 16.0806 27.4273 15.1193 28.09C14.158 28.7433 13.0613 29.07 11.8293 29.07C10.98 29.07 10.2426 28.9067 9.61731 28.58C9.00131 28.2533 8.52998 27.7913 8.20331 27.194C7.87665 26.5967 7.71331 25.906 7.71331 25.122C7.71331 24.758 7.74598 24.3987 7.81131 24.044Z" fill="black"/>
<path d="M20.2675 29.914H23.3335L22.9555 32H17.1315L18.8815 22.13H21.6255L20.2675 29.914Z" fill="black"/>
</svg>
