<svg width="200" height="24" viewBox="0 0 113 12" fill="none" xmlns="http://www.w3.org/2000/svg">
<path d="M4.54928 3.3L4.26928 4.938H7.41928L7.04128 7.024H3.89128L3.56928 8.816H7.13928L6.76128 11H0.433281L2.18328 1.13H8.49728L8.11928 3.3H4.54928ZM17.2592 11H14.5012L11.8412 5.484L10.8612 11H8.1032L9.8532 1.13H12.5972L15.2712 6.716L16.2512 1.13H18.9952L17.2592 11ZM19.3543 6.044C19.5223 5.07333 19.8816 4.21 20.4323 3.454C20.9829 2.68867 21.6736 2.096 22.5043 1.676C23.3349 1.24667 24.2449 1.032 25.2343 1.032C26.4756 1.032 27.4463 1.33067 28.1463 1.928C28.8556 2.52533 29.2196 3.342 29.2383 4.378H26.2843C26.1816 4.11667 26.0043 3.916 25.7523 3.776C25.5003 3.636 25.1829 3.566 24.8003 3.566C24.1189 3.566 23.5356 3.79 23.0503 4.238C22.5743 4.686 22.2709 5.288 22.1403 6.044C22.0936 6.324 22.0703 6.55733 22.0703 6.744C22.0703 7.36933 22.2476 7.84533 22.6023 8.172C22.9569 8.48933 23.4796 8.648 24.1703 8.648C25.1316 8.648 25.8969 8.214 26.4663 7.346H23.7083L24.0583 5.372H29.1823L28.7063 8.032C28.2209 8.86267 27.5256 9.57667 26.6203 10.174C25.7149 10.7713 24.6696 11.07 23.4843 11.07C22.6069 11.07 21.8509 10.9067 21.2163 10.58C20.5816 10.244 20.0963 9.77733 19.7603 9.18C19.4243 8.58267 19.2563 7.892 19.2563 7.108C19.2563 6.73467 19.2889 6.38 19.3543 6.044ZM33.898 1.13L32.162 11H29.404L31.154 1.13H33.898ZM42.8666 11H40.1086L37.4486 5.484L36.4686 11H33.7106L35.4606 1.13H38.2046L40.8786 6.716L41.8586 1.13H44.6026L42.8666 11ZM48.5317 3.3L48.2517 4.938H51.4017L51.0237 7.024H47.8737L47.5517 8.816H51.1217L50.7437 11H44.4157L46.1657 1.13H52.4797L52.1017 3.3H48.5317ZM56.2016 3.3L55.9216 4.938H59.0716L58.6936 7.024H55.5436L55.2216 8.816H58.7916L58.4136 11H52.0856L53.8356 1.13H60.1496L59.7716 3.3H56.2016ZM65.8315 1.13C66.8675 1.13 67.6562 1.36333 68.1975 1.83C68.7389 2.28733 69.0095 2.89867 69.0095 3.664C69.0095 3.89733 68.9909 4.10733 68.9535 4.294C68.8415 4.966 68.5569 5.55867 68.0995 6.072C67.6422 6.576 67.0355 6.93533 66.2795 7.15L67.8195 11H64.7675L63.4515 7.36H63.1575L62.5135 11H59.7555L61.5055 1.13H65.8315ZM63.4935 5.484H64.8515C65.5795 5.484 66.0089 5.13867 66.1395 4.448C66.1582 4.336 66.1675 4.25667 66.1675 4.21C66.1675 3.958 66.0835 3.762 65.9155 3.622C65.7569 3.482 65.5189 3.412 65.2015 3.412H63.8435L63.4935 5.484ZM73.0994 11.098C71.9607 11.098 71.0414 10.8647 70.3414 10.398C69.6507 9.922 69.3054 9.23133 69.3054 8.326C69.3054 8.25133 69.3147 8.12067 69.3334 7.934H72.2314C72.2034 8.25133 72.2687 8.49867 72.4274 8.676C72.5861 8.85333 72.8287 8.942 73.1554 8.942C73.4261 8.942 73.6407 8.88133 73.7994 8.76C73.9674 8.63867 74.0514 8.466 74.0514 8.242C74.0514 7.98067 73.9301 7.766 73.6874 7.598C73.4541 7.43 73.0714 7.234 72.5394 7.01C72.0074 6.786 71.5687 6.576 71.2234 6.38C70.8781 6.17467 70.5794 5.89933 70.3274 5.554C70.0754 5.19933 69.9494 4.76067 69.9494 4.238C69.9494 3.55667 70.1174 2.97333 70.4534 2.488C70.7894 1.99333 71.2561 1.62 71.8534 1.368C72.4601 1.10667 73.1507 0.976 73.9254 0.976C74.6254 0.976 75.2461 1.088 75.7874 1.312C76.3287 1.52667 76.7487 1.83933 77.0474 2.25C77.3554 2.66067 77.5094 3.146 77.5094 3.706C77.5094 3.85533 77.5047 3.96733 77.4954 4.042H74.5414C74.5507 3.99533 74.5554 3.93 74.5554 3.846C74.5554 3.622 74.4854 3.44933 74.3454 3.328C74.2054 3.19733 74.0141 3.132 73.7714 3.132C73.5194 3.132 73.3141 3.19733 73.1554 3.328C73.0061 3.44933 72.9314 3.622 72.9314 3.846C72.9314 4.08867 73.0481 4.29867 73.2814 4.476C73.5241 4.644 73.8974 4.84467 74.4014 5.078C74.9427 5.33 75.3861 5.568 75.7314 5.792C76.0861 6.00667 76.3894 6.296 76.6414 6.66C76.8934 7.024 77.0194 7.472 77.0194 8.004C77.0194 8.592 76.8607 9.124 76.5434 9.6C76.2261 10.0667 75.7734 10.4353 75.1854 10.706C74.5974 10.9673 73.9021 11.098 73.0994 11.098ZM81.2195 6.044C81.3875 5.07333 81.7422 4.21 82.2835 3.454C82.8248 2.68867 83.5062 2.096 84.3275 1.676C85.1488 1.24667 86.0448 1.032 87.0155 1.032C87.8275 1.032 88.5368 1.18133 89.1435 1.48C89.7502 1.77867 90.2215 2.20333 90.5575 2.754C90.8935 3.30467 91.0755 3.95333 91.1035 4.7H88.1495C88.0375 4.336 87.8415 4.056 87.5615 3.86C87.2815 3.664 86.9362 3.566 86.5255 3.566C85.8908 3.566 85.3448 3.79 84.8875 4.238C84.4302 4.686 84.1362 5.288 84.0055 6.044C83.9682 6.24 83.9495 6.45 83.9495 6.674C83.9495 7.25267 84.0988 7.71 84.3975 8.046C84.7055 8.37267 85.1255 8.536 85.6575 8.536C86.0682 8.536 86.4462 8.438 86.7915 8.242C87.1462 8.046 87.4402 7.766 87.6735 7.402H90.6415C90.1935 8.53133 89.4888 9.42733 88.5275 10.09C87.5662 10.7433 86.4695 11.07 85.2375 11.07C84.3882 11.07 83.6508 10.9067 83.0255 10.58C82.4095 10.2533 81.9382 9.79133 81.6115 9.194C81.2848 8.59667 81.1215 7.906 81.1215 7.122C81.1215 6.758 81.1542 6.39867 81.2195 6.044ZM95.3989 3.3L95.1189 4.938H98.2689L97.8909 7.024H94.7409L94.4189 8.816H97.9889L97.6109 11H91.2829L93.0329 1.13H99.3469L98.9689 3.3H95.3989ZM102.089 8.914H105.155L104.777 11H98.9528L100.703 1.13H103.447L102.089 8.914ZM108.966 8.914H112.032L111.654 11H105.83L107.58 1.13H110.324L108.966 8.914Z" fill="white"/>
</svg>
